<?xml version="1.0" encoding="UTF-8"?>
<svg id="Layer_1" data-name="Layer 1" xmlns="http://www.w3.org/2000/svg" xmlns:xlink="http://www.w3.org/1999/xlink" viewBox="0 0 215.53 214.89">
  <defs>
    <style>
      .cls-1 {
        fill: url(#linear-gradient-2);
      }

      .cls-2 {
        fill: #f7f9ff;
      }

      .cls-3 {
        fill: #60a4f5;
      }

      .cls-4 {
        opacity: .52;
        stroke: #fff;
        stroke-linecap: round;
        stroke-linejoin: round;
        stroke-width: 8px;
      }

      .cls-4, .cls-5 {
        fill: none;
      }

      .cls-4, .cls-6 {
        isolation: isolate;
      }

      .cls-7 {
        fill: url(#linear-gradient-3);
      }

      .cls-8 {
        fill: url(#linear-gradient);
      }

      .cls-6 {
        fill: #fff;
        opacity: .35;
      }
    </style>
    <linearGradient id="linear-gradient" x1="-1304.45" y1="490.87" x2="-1304.44" y2="489.58" gradientTransform="translate(56960.77 127990.15) rotate(45.97) scale(100.8 -97.86)" gradientUnits="userSpaceOnUse">
      <stop offset="0" stop-color="#e0e8ff" stop-opacity="0"/>
      <stop offset=".84" stop-color="#c7d4ff" stop-opacity=".85"/>
      <stop offset="1" stop-color="#c9d6fd"/>
    </linearGradient>
    <linearGradient id="linear-gradient-2" x1="-1312.89" y1="483.04" x2="-1312.88" y2="481.76" gradientTransform="translate(251305.04 75153.81) scale(191.31 -155.62)" xlink:href="#linear-gradient"/>
    <linearGradient id="linear-gradient-3" x1="-367.3" y1="317.82" x2="-368" y2="318.46" gradientTransform="translate(2822.72 37676.26) rotate(45) scale(77.37 -77.37)" gradientUnits="userSpaceOnUse">
      <stop offset="0" stop-color="#409fff"/>
      <stop offset="1" stop-color="#96caff"/>
    </linearGradient>
  </defs>
  <g id="Sky">
    <path id="Path_4982" data-name="Path 4982" class="cls-4" d="m107.96,76.42c-7.83-13.41-22.06-21.94-37.72-22.62-25.32-1.11-46.76,18.24-47.88,43.23"/>
    <g id="Group_7337" data-name="Group 7337">
      <path id="Path_4975" data-name="Path 4975" class="cls-2" d="m215.53,106.35c0-29.31-24.04-53.1-53.74-53.17h0c0-29.37-24.12-53.18-53.88-53.18s-53.88,23.81-53.88,53.18h-.14C24.12,53.18,0,76.98,0,106.35s24.12,53.18,53.88,53.18c.47,0,.94,0,1.4-.02v.02h107.77v-.02c29.2-.75,52.48-24.33,52.48-53.16h0Z"/>
      <path id="Union_21" data-name="Union 21" class="cls-8" d="m88.23,87.44c15.23,15.55,15.18,39.98-.12,54.57-15.29,14.59-40.04,13.81-55.27-1.73-15.22-15.54-15.18-39.98.12-54.57s40.04-13.81,55.27,1.73h0Z"/>
      <path id="Union_22" data-name="Union 22" class="cls-1" d="m164.27,150.65c-13.8.42-36.99-1.07-43.18-1.07-33.29,0-45.13-18.52-57.55-40.23s26.31-71.79,42.83-78.66c5.31-2.21,21.59,5.34,25.95,16.16,3.28,8.13,3.97,31.72,15.92,36.99,13.34,5.88,23.8,7.73,31.04,10.5,18.46,2.45,32.45,14.14,32.45,28.19,0,15.83-17.76,28.67-39.68,28.67-2.61,0-5.21-.19-7.79-.56h.01Z"/>
      <path id="Union_23" data-name="Union 23" class="cls-6" d="m101.69,87c7.85,20.19,7.18,39.22-1.5,42.51s-22.09-10.42-29.94-30.6c-7.85-20.18-7.18-39.22,1.5-42.51,8.68-3.29,22.08,10.41,29.94,30.6Z"/>
    </g>
  </g>
  <g id="Group_7340" data-name="Group 7340">
    <path id="Rectangle_81" data-name="Rectangle 81" class="cls-7" d="m114.31,107.99l27.36,27.36c15.11,15.11,15.11,39.6,0,54.71h0c-15.11,15.11-39.6,15.11-54.71,0h0c-15.11-15.11-15.11-39.6,0-54.71h0s27.36-27.36,27.36-27.36h0Z"/>
  </g>
  <g id="Ellipse_117" data-name="Ellipse 117">
    <circle class="cls-3" cx="37.95" cy="180.01" r="9.5"/>
    <circle class="cls-5" cx="37.95" cy="180.01" r="9"/>
  </g>
  <g id="Ellipse_118" data-name="Ellipse 118">
    <circle class="cls-3" cx="63.42" cy="196.39" r="9.5"/>
    <circle class="cls-5" cx="63.42" cy="196.39" r="9"/>
  </g>
  <g id="Ellipse_119" data-name="Ellipse 119">
    <circle class="cls-3" cx="162" cy="182.39" r="9.5"/>
    <circle class="cls-5" cx="162" cy="182.39" r="9"/>
  </g>
  <g id="Ellipse_120" data-name="Ellipse 120">
    <circle class="cls-3" cx="182.07" cy="205.39" r="9.5"/>
    <circle class="cls-5" cx="182.07" cy="205.39" r="9"/>
  </g>
</svg>