<?xml version="1.0" encoding="UTF-8"?>
<svg id="Layer_1" data-name="Layer 1" xmlns="http://www.w3.org/2000/svg" viewBox="0 0 221 211.96">
  <defs>
    <style>
      .cls-1 {
        fill: #fed938;
      }

      .cls-2 {
        fill: #fedc3b;
      }

      .cls-3 {
        fill: #fcd73d;
      }
    </style>
  </defs>
  <g id="Fuld_sol" data-name="Fuld sol">
    <circle id="Ellipse_116" data-name="Ellipse 116" class="cls-2" cx="110.5" cy="105.98" r="71.46"/>
    <g id="Path_5057" data-name="Path 5057">
      <path class="cls-2" d="m110.5,0c6.46,0,11.69,5.23,11.69,11.69s-5.23,11.69-11.69,11.69-11.69-5.23-11.69-11.69h0c0-6.46,5.23-11.69,11.69-11.69Z"/>
      <path class="cls-1" d="m110.5,1c-5.9,0-10.69,4.79-10.69,10.69s4.79,10.69,10.69,10.69,10.69-4.79,10.69-10.69-4.79-10.69-10.69-10.69m0-1c6.46,0,11.69,5.23,11.69,11.69s-5.23,11.69-11.69,11.69-11.69-5.23-11.69-11.69S104.04,0,110.5,0Z"/>
    </g>
    <g id="Path_5058" data-name="Path 5058">
      <path class="cls-2" d="m179.9,23.39c6.46,0,11.69,5.23,11.69,11.69s-5.23,11.69-11.69,11.69-11.69-5.23-11.69-11.69h0c0-6.46,5.23-11.69,11.69-11.69Z"/>
      <path class="cls-2" d="m179.9,24.39c-5.9,0-10.69,4.79-10.69,10.69s4.79,10.69,10.69,10.69,10.69-4.79,10.69-10.69-4.79-10.69-10.69-10.69m0-1c6.46,0,11.69,5.23,11.69,11.69s-5.23,11.69-11.69,11.69-11.69-5.23-11.69-11.69,5.23-11.69,11.69-11.69Z"/>
    </g>
    <g id="Path_5059" data-name="Path 5059">
      <path class="cls-1" d="m209.31,94.29c6.46,0,11.69,5.23,11.69,11.69s-5.23,11.69-11.69,11.69-11.69-5.23-11.69-11.69h0c0-6.46,5.23-11.69,11.69-11.69Z"/>
    </g>
    <g id="Path_5060" data-name="Path 5060">
      <path class="cls-2" d="m179.9,165.75c6.46,0,11.69,5.23,11.69,11.69s-5.23,11.69-11.69,11.69-11.69-5.23-11.69-11.69h0c0-6.46,5.23-11.69,11.69-11.69Z"/>
      <path class="cls-2" d="m179.9,166.75c-5.9,0-10.69,4.79-10.69,10.69s4.79,10.69,10.69,10.69,10.69-4.79,10.69-10.69-4.79-10.69-10.69-10.69m0-1c6.46,0,11.69,5.23,11.69,11.69s-5.23,11.69-11.69,11.69-11.69-5.23-11.69-11.69,5.23-11.69,11.69-11.69Z"/>
    </g>
    <g id="Path_5061" data-name="Path 5061">
      <path class="cls-1" d="m110.5,188.58c6.46,0,11.69,5.23,11.69,11.69s-5.23,11.69-11.69,11.69-11.69-5.23-11.69-11.69h0c0-6.46,5.23-11.69,11.69-11.69Z"/>
    </g>
    <g id="Path_5063" data-name="Path 5063">
      <path class="cls-3" d="m39.04,23.39c6.46,0,11.69,5.23,11.69,11.69s-5.23,11.69-11.69,11.69-11.69-5.23-11.69-11.69h0c0-6.46,5.23-11.69,11.69-11.69Z"/>
    </g>
    <g id="Path_5064" data-name="Path 5064">
      <path class="cls-1" d="m11.69,94.29c6.46,0,11.69,5.23,11.69,11.69s-5.23,11.69-11.69,11.69S0,112.44,0,105.98h0c0-6.46,5.23-11.69,11.69-11.69Z"/>
      <path class="cls-1" d="m11.69,95.3c-5.9,0-10.69,4.79-10.69,10.69s4.79,10.69,10.69,10.69,10.69-4.79,10.69-10.69-4.79-10.69-10.69-10.69m0-1c6.46,0,11.69,5.23,11.69,11.69s-5.23,11.69-11.69,11.69S0,112.44,0,105.98s5.23-11.69,11.69-11.69h0Z"/>
    </g>
    <g id="Path_5062" data-name="Path 5062">
      <path class="cls-2" d="m39.04,162.07c6.46,0,11.69,5.23,11.69,11.69s-5.23,11.69-11.69,11.69-11.69-5.23-11.69-11.69h0c0-6.46,5.23-11.69,11.69-11.69Z"/>
      <path class="cls-2" d="m39.04,163.07c-5.9,0-10.69,4.79-10.69,10.69s4.79,10.69,10.69,10.69,10.69-4.79,10.69-10.69-4.79-10.69-10.69-10.69m0-1c6.46,0,11.69,5.23,11.69,11.69s-5.23,11.69-11.69,11.69-11.69-5.23-11.69-11.69,5.23-11.69,11.69-11.69Z"/>
    </g>
  </g>
</svg>