<?xml version="1.0" encoding="UTF-8"?>
<svg id="Layer_1" data-name="Layer 1" xmlns="http://www.w3.org/2000/svg" xmlns:xlink="http://www.w3.org/1999/xlink" viewBox="0 0 214.98 214.78">
  <defs>
    <style>
      .cls-1 {
        fill: url(#linear-gradient-2);
      }

      .cls-2 {
        fill: #d1b3ff;
      }

      .cls-3 {
        fill: #9b70ff;
      }

      .cls-4 {
        fill: #d4b8ff;
      }

      .cls-5 {
        fill: none;
      }

      .cls-6 {
        fill: #bea1ff;
      }

      .cls-7 {
        fill: url(#linear-gradient-3);
      }

      .cls-8 {
        fill: url(#linear-gradient);
      }

      .cls-9 {
        fill: #9fb6ff;
        isolation: isolate;
        opacity: .1;
      }

      .cls-10 {
        fill: url(#linear-gradient-4);
      }
    </style>
    <linearGradient id="linear-gradient" x1="-900.46" y1="497.31" x2="-900.46" y2="496.03" gradientTransform="translate(126515.02 27319.91) rotate(-19) scale(122.89 -134.65)" gradientUnits="userSpaceOnUse">
      <stop offset="0" stop-color="#b9a0ff"/>
      <stop offset="1" stop-color="#855aff"/>
    </linearGradient>
    <linearGradient id="linear-gradient-2" x1="-1479.54" y1="287.7" x2="-1479.54" y2="286.66" gradientTransform="translate(199009.18 6902.48) scale(134.46 -23.52)" gradientUnits="userSpaceOnUse">
      <stop offset="0" stop-color="#f7faff"/>
      <stop offset=".6" stop-color="#e9eeff"/>
      <stop offset="1" stop-color="#e0e6ff"/>
    </linearGradient>
    <linearGradient id="linear-gradient-3" x1="-1479.53" y1="287.75" x2="-1479.53" y2="286.72" gradientTransform="translate(199141.16 6865.8) scale(134.5 -23.52)" xlink:href="#linear-gradient-2"/>
    <linearGradient id="linear-gradient-4" x1="-1476.97" y1="287.8" x2="-1476.97" y2="286.76" gradientTransform="translate(154440.94 6821.79) scale(104.5 -23.51)" xlink:href="#linear-gradient-2"/>
  </defs>
  <g id="Group_7330" data-name="Group 7330">
    <g id="Ellipse_105" data-name="Ellipse 105">
      <circle class="cls-6" cx="200.92" cy="44.42" r="14.06"/>
    </g>
    <g id="Ellipse_106" data-name="Ellipse 106">
      <circle class="cls-3" cx="196.39" cy="105.36" r="14.06"/>
      <circle class="cls-5" cx="194.01" cy="109.08" r="13.45"/>
    </g>
    <g id="Ellipse_109" data-name="Ellipse 109">
      <circle class="cls-4" cx="200.92" cy="200.72" r="14.06"/>
      <circle class="cls-5" cx="201.53" cy="200.72" r="13.45"/>
    </g>
    <g id="Ellipse_107" data-name="Ellipse 107">
      <circle class="cls-3" cx="39.94" cy="187.27" r="14.06"/>
    </g>
    <g id="Ellipse_108" data-name="Ellipse 108">
      <circle class="cls-2" cx="49.66" cy="14.06" r="14.06"/>
    </g>
    <path id="Path_4984" data-name="Path 4984" class="cls-8" d="m203.63,136.34c-12.51,45.56-59.6,72.32-105.14,59.8-45.56-12.51-72.32-59.6-59.8-105.14,12.51-45.54,59.58-72.32,105.12-59.8,3.62.99,7.16,2.22,10.62,3.69-21.96,26.09-18.6,65.03,7.48,86.99,11.64,9.79,26.49,14.95,41.7,14.47h.02Z"/>
  </g>
  <g id="Ellipse_105-2" data-name="Ellipse 105-2">
    <circle class="cls-6" cx="14.06" cy="121" r="14.06"/>
  </g>
  <g id="Group_7441" data-name="Group 7441">
    <g id="Group_7355" data-name="Group 7355">
      <path id="Path_5025" data-name="Path 5025" class="cls-1" d="m116.32,162.58c-6.97,0-13.79-2.02-19.63-5.82l-.05-.03c-6.92-4.51-15.85-4.52-22.77,0-11.94,7.79-27.36,7.8-39.32,0-6.92-4.51-15.85-4.51-22.78,0-3.47,2.33-8.16,1.41-10.49-2.06s-1.41-8.16,2.06-10.49c.06-.04.11-.08.18-.11,11.94-7.78,27.34-7.78,39.29,0,6.92,4.51,15.85,4.51,22.77,0,11.93-7.78,27.34-7.8,39.29-.03l.05.03c6.92,4.51,15.85,4.52,22.77,0,3.53-2.22,8.2-1.16,10.42,2.38,2.18,3.46,1.21,8.01-2.18,10.3-5.84,3.8-12.66,5.82-19.63,5.82h.02v.02Z"/>
      <path id="Path_5026" data-name="Path 5026" class="cls-7" d="m190.34,120.27c-6.95,0-13.75-2.01-19.59-5.8l-.03-.02-.06-.04c-6.92-4.5-15.84-4.5-22.76,0l-.07.05c-11.93,7.75-27.31,7.74-39.23-.03-6.92-4.51-15.85-4.51-22.77,0-3.53,2.24-8.2,1.19-10.43-2.34-2.2-3.47-1.23-8.05,2.18-10.33,11.94-7.78,27.34-7.78,39.28,0,6.92,4.51,15.85,4.51,22.77,0l.07-.05c11.91-7.73,27.26-7.73,39.18,0l.04.02.06.04c6.92,4.5,15.84,4.5,22.75,0,3.46-2.34,8.16-1.44,10.5,2.02s1.44,8.16-2.02,10.5c-.07.05-.16.1-.23.16-5.84,3.8-12.66,5.83-19.62,5.83h-.02,0Z"/>
      <path id="Path_5027" data-name="Path 5027" class="cls-10" d="m128.88,77.97c-6.95,0-13.77-2.01-19.6-5.8l-.04-.02-.06-.04c-6.9-4.48-15.8-4.5-22.71-.02l-.08.05c-11.94,7.77-27.34,7.77-39.28,0-3.53-2.23-4.58-6.9-2.35-10.43s6.9-4.58,10.43-2.35c.06.04.12.07.18.11,6.9,4.5,15.81,4.52,22.72.03l.07-.05c11.92-7.76,27.29-7.77,39.22-.03l.04.02.06.04c6.92,4.5,15.84,4.5,22.75,0,3.53-2.22,8.2-1.16,10.42,2.38,2.18,3.46,1.21,8.01-2.18,10.3-5.84,3.8-12.66,5.82-19.62,5.82h.02Z"/>
    </g>
    <path id="Path_5025-2" data-name="Path 5025-2" class="cls-9" d="m116.32,160.17c-6.72.05-13.39-1.23-19.63-3.76l-.05-.02c-7.31-2.91-15.45-2.91-22.77,0-12.63,5.02-26.69,5.03-39.32,0-7.31-2.91-15.46-2.91-22.78,0-3.5,1.47-8.18.83-10.46-1.43s-1.29-5.28,2.21-6.75c12.62-5.02,26.67-5.02,39.29,0,7.31,2.91,15.45,2.91,22.77,0,12.62-5.02,26.67-5.03,39.29-.02l.05.02c7.31,2.91,15.45,2.91,22.77,0,3.5-1.47,8.18-.83,10.46,1.43s1.28,5.28-2.22,6.75c-6.24,2.53-12.91,3.8-19.63,3.76l.02.02h0Z"/>
    <path id="Path_5026-2" data-name="Path 5026-2" class="cls-9" d="m190.34,119.03c-6.78.04-13.49-1.47-19.59-4.42l-.03-.02-.06-.03c-7.2-3.43-15.56-3.43-22.76,0l-.07.04c-12.41,5.9-26.83,5.89-39.23-.03-7.2-3.44-15.57-3.44-22.77,0-3.5,1.74-8.18.98-10.46-1.68s-1.29-6.24,2.21-7.98c12.42-5.92,26.86-5.92,39.28,0,7.2,3.44,15.57,3.44,22.77,0l.07-.04c12.4-5.89,26.78-5.89,39.18,0l.04.02.06.03c7.2,3.43,15.56,3.43,22.75,0,3.5-1.74,8.18-.98,10.46,1.69s1.28,6.25-2.22,7.98c-6.11,2.96-12.82,4.48-19.62,4.44h-.01Z"/>
    <path id="Path_5027-2" data-name="Path 5027-2" class="cls-9" d="m128.88,76.5c-6.77.04-13.48-1.45-19.6-4.37l-.04-.02-.06-.03c-7.19-3.38-15.52-3.39-22.71-.02l-.08.04c-12.44,5.85-26.84,5.85-39.28,0-3.5-1.72-4.48-5.25-2.21-7.88,2.28-2.63,6.96-3.38,10.46-1.66,7.2,3.39,15.53,3.4,22.72.02l.07-.04c12.42-5.84,26.8-5.85,39.22-.02l.04.02.06.03c7.21,3.39,15.55,3.39,22.75,0,3.5-1.72,8.18-.97,10.46,1.67,2.28,2.64,1.28,6.16-2.22,7.88-6.12,2.93-12.83,4.42-19.62,4.38,0,0,.02,0,.02,0Z"/>
    <path id="Path_5031" data-name="Path 5031" class="cls-9" d="m191.93,117.83c-6.72.05-13.39-1.23-19.63-3.76l-.05-.02c-7.31-2.91-15.45-2.91-22.77,0-12.63,5.02-26.69,5.03-39.32,0-7.31-2.91-15.46-2.91-22.78,0-3.5,1.47-8.18.83-10.46-1.43s-1.29-5.28,2.21-6.75c12.62-5.02,26.67-5.02,39.29,0,7.31,2.91,15.45,2.91,22.77,0,12.62-5.02,26.67-5.03,39.29-.02l.05.02c7.31,2.91,15.45,2.91,22.77,0,3.5-1.47,8.18-.83,10.46,1.43s1.28,5.28-2.22,6.75c-6.24,2.53-12.91,3.8-19.63,3.76l.02.02h0Z"/>
    <path id="Path_5032" data-name="Path 5032" class="cls-9" d="m126.4,76.5c-6.72.05-13.39-1.23-19.63-3.76l-.05-.02c-7.31-2.91-15.45-2.91-22.77,0-12.63,5.02-26.69,5.03-39.32,0-6.92-2.91-3.68-13.2,8.26-8.17,7.31,2.91,15.45,2.91,22.77,0,12.62-5.02,26.67-5.03,39.29-.02l.05.02c7.31,2.91,15.45,2.91,22.77,0,3.5-1.47,8.18-.83,10.46,1.43s1.28,5.28-2.22,6.75c-6.24,2.53-12.9,3.8-19.63,3.75l.02.02h0Z"/>
  </g>
</svg>