<?xml version="1.0" encoding="UTF-8"?>
<svg id="Layer_1" data-name="Layer 1" xmlns="http://www.w3.org/2000/svg" xmlns:xlink="http://www.w3.org/1999/xlink" viewBox="0 0 215.53 214.56">
  <defs>
    <style>
      .cls-1 {
        fill: url(#linear-gradient-2);
      }

      .cls-2 {
        fill: #f7f9ff;
      }

      .cls-3 {
        fill: url(#linear-gradient-17);
      }

      .cls-4 {
        fill: url(#linear-gradient-15);
      }

      .cls-5 {
        fill: url(#linear-gradient-18);
      }

      .cls-6 {
        fill: url(#linear-gradient-28);
      }

      .cls-7 {
        fill: url(#linear-gradient-14);
      }

      .cls-8 {
        fill: url(#linear-gradient-20);
      }

      .cls-9 {
        fill: url(#linear-gradient-6);
      }

      .cls-10 {
        fill: url(#linear-gradient-11);
      }

      .cls-11 {
        fill: url(#linear-gradient-10);
      }

      .cls-12 {
        fill: url(#linear-gradient-16);
      }

      .cls-13 {
        fill: url(#linear-gradient-21);
      }

      .cls-14 {
        fill: url(#linear-gradient-25);
      }

      .cls-15 {
        fill: url(#linear-gradient-5);
      }

      .cls-16 {
        fill: url(#linear-gradient-7);
      }

      .cls-17 {
        fill: url(#linear-gradient-24);
      }

      .cls-18 {
        fill: url(#linear-gradient-9);
      }

      .cls-19 {
        fill: url(#linear-gradient-22);
      }

      .cls-20 {
        fill: url(#linear-gradient-3);
      }

      .cls-21 {
        fill: url(#linear-gradient);
      }

      .cls-22 {
        fill: url(#linear-gradient-27);
      }

      .cls-23 {
        fill: url(#linear-gradient-29);
      }

      .cls-24 {
        fill: url(#linear-gradient-23);
      }

      .cls-25 {
        fill: url(#linear-gradient-19);
      }

      .cls-26 {
        fill: url(#linear-gradient-4);
      }

      .cls-27 {
        fill: #fff;
        isolation: isolate;
        opacity: .35;
      }

      .cls-28 {
        fill: url(#linear-gradient-8);
      }

      .cls-29 {
        fill: url(#linear-gradient-12);
      }

      .cls-30 {
        fill: url(#linear-gradient-13);
      }

      .cls-31 {
        fill: url(#linear-gradient-26);
      }
    </style>
    <linearGradient id="linear-gradient" x1="-1670.68" y1="-171.83" x2="-1670.67" y2="-170.54" gradientTransform="translate(105066.31 132831.62) rotate(45.97) scale(100.8 97.86)" gradientUnits="userSpaceOnUse">
      <stop offset="0" stop-color="#e0e8ff" stop-opacity="0"/>
      <stop offset=".84" stop-color="#c7d4ff" stop-opacity=".85"/>
      <stop offset="1" stop-color="#c9d6fd"/>
    </linearGradient>
    <linearGradient id="linear-gradient-2" x1="-1682.95" y1="-161.57" x2="-1682.94" y2="-160.29" gradientTransform="translate(322100.37 25126.02) scale(191.31 155.62)" xlink:href="#linear-gradient"/>
    <linearGradient id="linear-gradient-3" x1="-363.07" y1="321.15" x2="-363.07" y2="320.41" gradientTransform="translate(5703.62 14351.94) rotate(60) scale(41.46 -7.23)" gradientUnits="userSpaceOnUse">
      <stop offset="0" stop-color="#3d9bfa"/>
      <stop offset="1" stop-color="#cbe4ff"/>
    </linearGradient>
    <linearGradient id="linear-gradient-4" x1="-367.69" y1="361.7" x2="-367.69" y2="360.95" gradientTransform="translate(-9698.94 12053.14) rotate(120) scale(41.46 -7.23)" xlink:href="#linear-gradient-3"/>
    <linearGradient id="linear-gradient-5" x1="-366.88" y1="277.91" x2="-366.88" y2="277.17" gradientTransform="translate(15395.67 2162.34) scale(41.46 -7.23)" xlink:href="#linear-gradient-3"/>
    <linearGradient id="linear-gradient-6" x1="-362.48" y1="318.43" x2="-362.48" y2="318.13" xlink:href="#linear-gradient-3"/>
    <linearGradient id="linear-gradient-7" x1="-367.02" y1="363.16" x2="-367.02" y2="362.86" gradientTransform="translate(-9698.94 12053.14) rotate(120) scale(41.46 -7.23)" xlink:href="#linear-gradient-3"/>
    <linearGradient id="linear-gradient-8" x1="-366.96" y1="273.51" x2="-366.96" y2="273.21" gradientTransform="translate(15395.67 2162.34) scale(41.46 -7.23)" xlink:href="#linear-gradient-3"/>
    <linearGradient id="linear-gradient-9" x1="-362.93" y1="316.31" x2="-362.93" y2="316.01" xlink:href="#linear-gradient-3"/>
    <linearGradient id="linear-gradient-10" x1="-366.92" y1="359.85" x2="-366.92" y2="359.55" gradientTransform="translate(-9698.94 12053.14) rotate(120) scale(41.46 -7.23)" xlink:href="#linear-gradient-3"/>
    <linearGradient id="linear-gradient-11" x1="-367.51" y1="274.69" x2="-367.51" y2="274.39" gradientTransform="translate(15395.67 2162.34) scale(41.46 -7.23)" xlink:href="#linear-gradient-3"/>
    <linearGradient id="linear-gradient-12" x1="-363.2" y1="308.33" x2="-363.2" y2="308.03" xlink:href="#linear-gradient-3"/>
    <linearGradient id="linear-gradient-13" x1="-365.86" y1="354.51" x2="-365.86" y2="354.21" gradientTransform="translate(-9698.94 12053.14) rotate(120) scale(41.46 -7.23)" xlink:href="#linear-gradient-3"/>
    <linearGradient id="linear-gradient-14" x1="-368.85" y1="272.05" x2="-368.85" y2="271.75" gradientTransform="translate(15395.67 2162.34) scale(41.46 -7.23)" xlink:href="#linear-gradient-3"/>
    <linearGradient id="linear-gradient-15" x1="-364.08" y1="314.83" x2="-364.08" y2="313.35" xlink:href="#linear-gradient-3"/>
    <linearGradient id="linear-gradient-16" x1="-367.19" y1="353.68" x2="-367.19" y2="352.21" gradientTransform="translate(-9698.94 12053.14) rotate(120) scale(41.46 -7.23)" xlink:href="#linear-gradient-3"/>
    <linearGradient id="linear-gradient-17" x1="-368.39" y1="279.97" x2="-368.39" y2="278.49" gradientTransform="translate(15395.67 2162.34) scale(41.46 -7.23)" xlink:href="#linear-gradient-3"/>
    <linearGradient id="linear-gradient-18" x1="-364" y1="308" x2="-364" y2="307.57" xlink:href="#linear-gradient-3"/>
    <linearGradient id="linear-gradient-19" x1="-366.19" y1="350.44" x2="-366.19" y2="350" gradientTransform="translate(-9698.94 12053.14) rotate(120) scale(41.46 -7.23)" xlink:href="#linear-gradient-3"/>
    <linearGradient id="linear-gradient-20" x1="-369.3" y1="275.87" x2="-369.3" y2="275.43" gradientTransform="translate(15395.67 2162.34) scale(41.46 -7.23)" xlink:href="#linear-gradient-3"/>
    <linearGradient id="linear-gradient-21" x1="-364.73" y1="304.66" x2="-364.73" y2="303.92" xlink:href="#linear-gradient-3"/>
    <linearGradient id="linear-gradient-22" x1="-366.03" y1="345.2" x2="-366.03" y2="344.46" gradientTransform="translate(-9698.94 12053.14) rotate(120) scale(41.46 -7.23)" xlink:href="#linear-gradient-3"/>
    <linearGradient id="linear-gradient-23" x1="-370.2" y1="277.91" x2="-370.2" y2="277.17" gradientTransform="translate(15395.67 2162.34) scale(41.46 -7.23)" xlink:href="#linear-gradient-3"/>
    <linearGradient id="linear-gradient-24" x1="-363.74" y1="302.92" x2="-363.74" y2="302.04" xlink:href="#linear-gradient-3"/>
    <linearGradient id="linear-gradient-25" x1="-365.27" y1="349.25" x2="-365.27" y2="348.38" gradientTransform="translate(-9698.94 12053.14) rotate(120) scale(41.46 -7.23)" xlink:href="#linear-gradient-3"/>
    <linearGradient id="linear-gradient-26" x1="-369.98" y1="272.19" x2="-369.98" y2="271.31" gradientTransform="translate(15395.67 2162.34) scale(41.46 -7.23)" xlink:href="#linear-gradient-3"/>
    <linearGradient id="linear-gradient-27" x1="-362.53" y1="313.64" x2="-362.53" y2="313.02" xlink:href="#linear-gradient-3"/>
    <linearGradient id="linear-gradient-28" x1="-366.3" y1="360.58" x2="-366.3" y2="359.96" gradientTransform="translate(-9698.94 12053.14) rotate(120) scale(41.46 -7.23)" xlink:href="#linear-gradient-3"/>
    <linearGradient id="linear-gradient-29" x1="-367.73" y1="271.46" x2="-367.73" y2="270.84" gradientTransform="translate(15395.67 2162.34) scale(41.46 -7.23)" xlink:href="#linear-gradient-3"/>
  </defs>
  <g id="Group_7337" data-name="Group 7337">
    <path id="Path_4975" data-name="Path 4975" class="cls-2" d="m215.53,106.35c0-29.31-24.04-53.1-53.74-53.17h0c0-29.37-24.12-53.18-53.88-53.18s-53.88,23.81-53.88,53.18h-.14C24.12,53.18,0,76.98,0,106.35s24.12,53.18,53.88,53.18c.47,0,.94,0,1.4-.02v.02h107.77v-.02c29.2-.75,52.48-24.33,52.48-53.16h0Z"/>
    <path id="Union_21" data-name="Union 21" class="cls-21" d="m88.23,87.44c15.23,15.55,15.18,39.98-.12,54.57-15.29,14.59-40.04,13.81-55.27-1.73-15.22-15.54-15.18-39.98.12-54.57s40.04-13.81,55.27,1.73h0Z"/>
    <path id="Union_22" data-name="Union 22" class="cls-1" d="m164.27,150.65c-13.8.42-36.99-1.07-43.18-1.07-33.29,0-45.13-18.52-57.55-40.23s26.31-71.79,42.83-78.66c5.31-2.21,21.59,5.34,25.95,16.16,3.28,8.13,3.97,31.72,15.92,36.99,13.34,5.88,23.8,7.73,31.04,10.5,18.46,2.45,32.45,14.14,32.45,28.19,0,15.83-17.76,28.67-39.68,28.67-2.61,0-5.21-.19-7.79-.56h.01Z"/>
    <path id="Union_23" data-name="Union 23" class="cls-27" d="m101.69,87c7.85,20.19,7.18,39.22-1.5,42.51s-22.09-10.42-29.94-30.6c-7.85-20.18-7.18-39.22,1.5-42.51,8.68-3.29,22.08,10.41,29.94,30.6Z"/>
  </g>
  <g>
    <path id="Path_5009-2" data-name="Path 5009-2" class="cls-20" d="m193.14,169.45c.49-.49.77-1.16.76-1.85,0-.46-.13-.92-.36-1.32l-12.89-22.07c-.72-1.26-2.32-1.69-3.57-.98-1.24.71-1.69,2.28-1,3.53l.04.07,12.9,22.08c.73,1.25,2.33,1.67,3.58.94.2-.11.37-.25.53-.41h0Z"/>
    <path id="Path_5010-2" data-name="Path 5010-2" class="cls-26" d="m177.81,170.2c.67.18,1.39.09,1.99-.26.4-.23.73-.57.96-.97l12.66-22.2c.73-1.25.31-2.85-.94-3.58-1.23-.72-2.82-.32-3.56.9l-.04.07-12.67,22.21c-.72,1.26-.28,2.86.98,3.57.2.11.41.2.62.26h0Z"/>
    <path id="Path_5011-2" data-name="Path 5011-2" class="cls-15" d="m200.16,155.8c-.18-.67-.62-1.24-1.22-1.59-.4-.23-.86-.35-1.32-.35l-25.56.13c-1.45,0-2.63,1.16-2.63,2.61,0,1.43,1.13,2.6,2.56,2.63h.08l25.57-.13c1.45,0,2.61-1.19,2.61-2.63,0-.23-.03-.45-.09-.67h0Z"/>
  </g>
  <g>
    <path id="Path_5009-2-2" data-name="Path 5009-2" class="cls-9" d="m184.78,191.97c.2-.2.31-.47.31-.75,0-.19-.05-.37-.14-.53l-5.19-8.88c-.29-.51-.93-.68-1.44-.39-.5.28-.68.92-.4,1.42l.02.03,5.19,8.89c.29.5.94.67,1.44.38.08-.05.15-.1.21-.17h0Z"/>
    <path id="Path_5010-2-2" data-name="Path 5010-2" class="cls-16" d="m178.61,192.27c.27.07.56.03.8-.11.16-.09.29-.23.39-.39l5.1-8.93c.29-.5.12-1.15-.38-1.44-.5-.29-1.13-.13-1.43.36l-.02.03-5.1,8.94c-.29.51-.11,1.15.39,1.44.08.05.16.08.25.1h0Z"/>
    <path id="Path_5011-2-2" data-name="Path 5011-2" class="cls-28" d="m187.61,186.48c-.07-.27-.25-.5-.49-.64-.16-.09-.35-.14-.53-.14l-10.29.05c-.58,0-1.06.47-1.06,1.05,0,.57.46,1.05,1.03,1.06h.03l10.29-.05c.58,0,1.05-.48,1.05-1.06,0-.09-.01-.18-.04-.27h0Z"/>
  </g>
  <g>
    <path id="Path_5009-2-3" data-name="Path 5009-2" class="cls-18" d="m162.1,183.43c.2-.2.31-.47.31-.75,0-.19-.05-.37-.14-.53l-5.19-8.88c-.29-.51-.93-.68-1.44-.39-.5.28-.68.92-.4,1.42l.02.03,5.19,8.89c.29.5.94.67,1.44.38.08-.05.15-.1.21-.17h0Z"/>
    <path id="Path_5010-2-3" data-name="Path 5010-2" class="cls-11" d="m155.93,183.73c.27.07.56.03.8-.11.16-.09.29-.23.39-.39l5.1-8.93c.29-.5.12-1.15-.38-1.44-.5-.29-1.13-.13-1.43.36l-.02.03-5.1,8.94c-.29.51-.11,1.15.39,1.44.08.05.16.08.25.1h0Z"/>
    <path id="Path_5011-2-3" data-name="Path 5011-2" class="cls-10" d="m164.93,177.93c-.07-.27-.25-.5-.49-.64-.16-.09-.35-.14-.53-.14l-10.29.05c-.58,0-1.06.47-1.06,1.05,0,.57.46,1.05,1.03,1.06h.03l10.29-.05c.58,0,1.05-.48,1.05-1.06,0-.09-.01-.18-.04-.27h0Z"/>
  </g>
  <g>
    <path id="Path_5009-2-4" data-name="Path 5009-2" class="cls-29" d="m106.56,202.49c.2-.2.31-.47.31-.75,0-.19-.05-.37-.14-.53l-5.19-8.88c-.29-.51-.93-.68-1.44-.39-.5.28-.68.92-.4,1.42l.02.03,5.19,8.89c.29.5.94.67,1.44.38.08-.05.15-.1.21-.17h0Z"/>
    <path id="Path_5010-2-4" data-name="Path 5010-2" class="cls-30" d="m100.39,202.79c.27.07.56.03.8-.11.16-.09.29-.23.39-.39l5.1-8.93c.29-.5.12-1.15-.38-1.44-.5-.29-1.13-.13-1.43.36l-.02.03-5.1,8.94c-.29.51-.11,1.15.39,1.44.08.05.16.08.25.1h0Z"/>
    <path id="Path_5011-2-4" data-name="Path 5011-2" class="cls-7" d="m109.38,197c-.07-.27-.25-.5-.49-.64-.16-.09-.35-.14-.53-.14l-10.29.05c-.58,0-1.06.47-1.06,1.05,0,.57.46,1.05,1.03,1.06h.03l10.29-.05c.58,0,1.05-.48,1.05-1.06,0-.09-.01-.18-.04-.27h0Z"/>
  </g>
  <g>
    <path id="Path_5009-2-5" data-name="Path 5009-2" class="cls-4" d="m138.46,169.94c.98-.97,1.52-2.3,1.52-3.68,0-.92-.25-1.82-.71-2.62l-25.58-43.78c-1.42-2.49-4.6-3.36-7.09-1.94-2.46,1.4-3.34,4.52-1.98,7.01l.08.14,25.6,43.81c1.45,2.48,4.63,3.31,7.11,1.87.39-.23.74-.5,1.06-.82h0Z"/>
    <path id="Path_5010-2-5" data-name="Path 5010-2" class="cls-12" d="m108.03,171.43c1.33.36,2.75.17,3.94-.53.79-.47,1.45-1.13,1.91-1.92l25.12-44.04c1.45-2.48.61-5.66-1.87-7.11-2.45-1.43-5.59-.64-7.06,1.79l-.08.14-25.14,44.07c-1.42,2.49-.56,5.67,1.94,7.09.39.22.81.39,1.24.51h0Z"/>
    <path id="Path_5011-2-5" data-name="Path 5011-2" class="cls-3" d="m152.38,142.85c-.35-1.33-1.23-2.47-2.43-3.15-.8-.45-1.7-.69-2.62-.69l-50.71.27c-2.87-.01-5.21,2.3-5.22,5.17-.01,2.83,2.24,5.16,5.08,5.22h.17l50.74-.26c2.87-.01,5.19-2.35,5.17-5.22,0-.45-.06-.89-.18-1.33h0Z"/>
  </g>
  <g>
    <path id="Path_5009-2-6" data-name="Path 5009-2" class="cls-5" d="m89.14,177.75c.29-.29.45-.68.45-1.08,0-.27-.07-.54-.21-.77l-7.54-12.9c-.42-.73-1.35-.99-2.09-.57-.73.41-.99,1.33-.58,2.07l.02.04,7.54,12.91c.43.73,1.36.98,2.09.55.11-.07.22-.15.31-.24h0Z"/>
    <path id="Path_5010-2-6" data-name="Path 5010-2" class="cls-25" d="m80.17,178.19c.39.11.81.05,1.16-.15.23-.14.43-.33.56-.57l7.4-12.98c.43-.73.18-1.67-.55-2.1-.72-.42-1.65-.19-2.08.53l-.02.04-7.41,12.99c-.42.73-.16,1.67.57,2.09.11.07.24.12.36.15h0Z"/>
    <path id="Path_5011-2-6" data-name="Path 5011-2" class="cls-8" d="m93.24,169.77c-.1-.39-.36-.73-.71-.93-.24-.13-.5-.2-.77-.2l-14.94.08c-.85,0-1.54.68-1.54,1.52,0,.83.66,1.52,1.5,1.54h.05l14.95-.08c.85,0,1.53-.69,1.52-1.54,0-.13-.02-.26-.05-.39h0Z"/>
  </g>
  <g>
    <path id="Path_5009-2-7" data-name="Path 5009-2" class="cls-13" d="m55.52,169.44c.49-.49.77-1.16.76-1.85,0-.46-.13-.92-.36-1.32l-12.89-22.07c-.72-1.26-2.32-1.69-3.57-.98-1.24.71-1.69,2.28-1,3.53l.04.07,12.9,22.08c.73,1.25,2.33,1.67,3.58.94.2-.11.37-.25.53-.41h0Z"/>
    <path id="Path_5010-2-7" data-name="Path 5010-2" class="cls-19" d="m40.18,170.19c.67.18,1.39.09,1.99-.26.4-.23.73-.57.96-.97l12.66-22.2c.73-1.25.31-2.85-.94-3.58-1.23-.72-2.82-.32-3.56.9l-.04.07-12.67,22.21c-.72,1.26-.28,2.86.98,3.57.2.11.41.2.62.26h0Z"/>
    <path id="Path_5011-2-7" data-name="Path 5011-2" class="cls-24" d="m62.53,155.79c-.18-.67-.62-1.24-1.22-1.59-.4-.23-.86-.35-1.32-.35l-25.56.13c-1.45,0-2.63,1.16-2.63,2.61,0,1.43,1.13,2.6,2.56,2.63h.08l25.57-.13c1.45,0,2.61-1.19,2.61-2.63,0-.23-.03-.45-.09-.67h0Z"/>
  </g>
  <g>
    <path id="Path_5009-2-8" data-name="Path 5009-2" class="cls-17" d="m66.05,213.57c.58-.58.9-1.36.9-2.18,0-.54-.15-1.08-.42-1.55l-15.17-25.96c-.84-1.48-2.73-1.99-4.21-1.15-1.46.83-1.98,2.68-1.18,4.16l.05.08,15.18,25.98c.86,1.47,2.75,1.97,4.22,1.11.23-.13.44-.3.63-.49h0Z"/>
    <path id="Path_5010-2-8" data-name="Path 5010-2" class="cls-14" d="m48.01,214.45c.79.21,1.63.1,2.34-.31.47-.28.86-.67,1.13-1.14l14.9-26.12c.86-1.47.36-3.36-1.11-4.22-1.45-.85-3.31-.38-4.19,1.06l-.05.08-14.91,26.14c-.84,1.48-.33,3.36,1.15,4.21.23.13.48.23.73.3h0Z"/>
    <path id="Path_5011-2-8" data-name="Path 5011-2" class="cls-31" d="m74.31,197.51c-.21-.79-.73-1.46-1.44-1.87-.47-.27-1.01-.41-1.55-.41l-30.07.16c-1.7,0-3.09,1.36-3.1,3.07,0,1.68,1.33,3.06,3.01,3.1h.1l30.09-.16c1.7,0,3.08-1.4,3.07-3.1,0-.27-.04-.53-.11-.79h0Z"/>
  </g>
  <g>
    <path id="Path_5009-2-9" data-name="Path 5009-2" class="cls-22" d="m156.28,213.57c.41-.41.64-.97.64-1.55,0-.39-.11-.77-.3-1.1l-10.8-18.47c-.6-1.05-1.94-1.42-2.99-.82-1.04.59-1.41,1.91-.84,2.96l.03.06,10.8,18.49c.61,1.05,1.95,1.4,3,.79.16-.1.31-.21.45-.35h0Z"/>
    <path id="Path_5010-2-9" data-name="Path 5010-2" class="cls-6" d="m143.45,214.19c.56.15,1.16.07,1.66-.22.33-.2.61-.48.81-.81l10.6-18.59c.61-1.05.26-2.39-.79-3-1.03-.6-2.36-.27-2.98.75l-.03.06-10.61,18.6c-.6,1.05-.23,2.39.82,2.99.16.09.34.17.52.21h0Z"/>
    <path id="Path_5011-2-9" data-name="Path 5011-2" class="cls-23" d="m162.16,202.13c-.15-.56-.52-1.04-1.02-1.33-.34-.19-.72-.29-1.11-.29l-21.4.11c-1.21,0-2.2.97-2.2,2.18,0,1.2.95,2.18,2.14,2.2h.07l21.41-.11c1.21,0,2.19-.99,2.18-2.2,0-.19-.03-.38-.08-.56h0Z"/>
  </g>
</svg>