<?xml version="1.0" encoding="UTF-8"?>
<svg id="Layer_1" data-name="Layer 1" xmlns="http://www.w3.org/2000/svg" xmlns:xlink="http://www.w3.org/1999/xlink" viewBox="0 0 212.95 204.24">
  <defs>
    <style>
      .cls-1 {
        fill: url(#linear-gradient-2);
      }

      .cls-2 {
        fill: #fed938;
      }

      .cls-3 {
        fill: #fedc3b;
      }

      .cls-4 {
        fill: url(#linear-gradient-3);
      }

      .cls-5 {
        fill: url(#linear-gradient);
      }

      .cls-6 {
        fill: #9fb6ff;
        isolation: isolate;
        opacity: .1;
      }

      .cls-7 {
        fill: #fcd73d;
      }
    </style>
    <linearGradient id="linear-gradient" x1="-2252.77" y1="32.26" x2="-2252.77" y2="33.29" gradientTransform="translate(302977.1 -633.6) scale(134.46 23.52)" gradientUnits="userSpaceOnUse">
      <stop offset="0" stop-color="#f7faff"/>
      <stop offset=".6" stop-color="#e9eeff"/>
      <stop offset="1" stop-color="#e0e6ff"/>
    </linearGradient>
    <linearGradient id="linear-gradient-2" x1="-2252.77" y1="32.22" x2="-2252.77" y2="33.25" gradientTransform="translate(303140.22 -670.28) scale(134.5 23.52)" gradientUnits="userSpaceOnUse">
      <stop offset="0" stop-color="#f7faff"/>
      <stop offset=".6" stop-color="#e9eeff"/>
      <stop offset="1" stop-color="#e0e6ff"/>
    </linearGradient>
    <linearGradient id="linear-gradient-3" x1="-2248.54" y1="32.19" x2="-2248.54" y2="33.22" gradientTransform="translate(235069.43 -711.14) scale(104.5 23.51)" gradientUnits="userSpaceOnUse">
      <stop offset="0" stop-color="#f7faff"/>
      <stop offset=".6" stop-color="#e9eeff"/>
      <stop offset="1" stop-color="#e0e6ff"/>
    </linearGradient>
  </defs>
  <g id="Fuld_sol" data-name="Fuld sol">
    <circle id="Ellipse_116" data-name="Ellipse 116" class="cls-3" cx="106.48" cy="102.12" r="68.86"/>
    <g id="Path_5057" data-name="Path 5057">
      <path class="cls-3" d="m106.48,0c6.22,0,11.26,5.04,11.26,11.26s-5.04,11.26-11.26,11.26-11.26-5.04-11.26-11.26h0c0-6.22,5.04-11.26,11.26-11.26Z"/>
      <path class="cls-2" d="m106.48.96c-5.69,0-10.3,4.62-10.3,10.3s4.62,10.3,10.3,10.3,10.3-4.62,10.3-10.3S112.16.96,106.48.96m0-.96c6.22,0,11.26,5.04,11.26,11.26s-5.04,11.26-11.26,11.26-11.26-5.04-11.26-11.26S100.25,0,106.48,0Z"/>
    </g>
    <g id="Path_5058" data-name="Path 5058">
      <path class="cls-3" d="m173.35,22.54c6.22,0,11.26,5.04,11.26,11.26s-5.04,11.26-11.26,11.26-11.26-5.04-11.26-11.26h0c0-6.22,5.04-11.26,11.26-11.26Z"/>
      <path class="cls-3" d="m173.35,23.5c-5.69,0-10.3,4.62-10.3,10.3s4.62,10.3,10.3,10.3,10.3-4.62,10.3-10.3-4.62-10.3-10.3-10.3m0-.96c6.22,0,11.26,5.04,11.26,11.26s-5.04,11.26-11.26,11.26-11.26-5.04-11.26-11.26,5.04-11.26,11.26-11.26Z"/>
    </g>
    <g id="Path_5059" data-name="Path 5059">
      <path class="cls-2" d="m201.69,90.86c6.22,0,11.26,5.04,11.26,11.26s-5.04,11.26-11.26,11.26-11.26-5.04-11.26-11.26h0c0-6.22,5.04-11.26,11.26-11.26Z"/>
    </g>
    <g id="Path_5060" data-name="Path 5060">
      <path class="cls-3" d="m173.35,159.71c6.22,0,11.26,5.04,11.26,11.26s-5.04,11.26-11.26,11.26-11.26-5.04-11.26-11.26h0c0-6.22,5.04-11.26,11.26-11.26Z"/>
      <path class="cls-3" d="m173.35,160.68c-5.69,0-10.3,4.62-10.3,10.3s4.62,10.3,10.3,10.3,10.3-4.62,10.3-10.3-4.62-10.3-10.3-10.3m0-.96c6.22,0,11.26,5.04,11.26,11.26s-5.04,11.26-11.26,11.26-11.26-5.04-11.26-11.26,5.04-11.26,11.26-11.26Z"/>
    </g>
    <g id="Path_5061" data-name="Path 5061">
      <path class="cls-2" d="m106.48,181.72c6.22,0,11.26,5.04,11.26,11.26s-5.04,11.26-11.26,11.26-11.26-5.04-11.26-11.26h0c0-6.22,5.04-11.26,11.26-11.26Z"/>
    </g>
    <g id="Path_5063" data-name="Path 5063">
      <path class="cls-7" d="m37.62,22.54c6.22,0,11.26,5.04,11.26,11.26s-5.04,11.26-11.26,11.26-11.26-5.04-11.26-11.26h0c0-6.22,5.04-11.26,11.26-11.26Z"/>
    </g>
    <g id="Path_5064" data-name="Path 5064">
      <path class="cls-2" d="m11.26,90.86c6.22,0,11.26,5.04,11.26,11.26s-5.04,11.26-11.26,11.26S0,108.35,0,102.12H0C0,95.9,5.04,90.86,11.26,90.86Z"/>
      <path class="cls-2" d="m11.26,91.83c-5.69,0-10.3,4.62-10.3,10.3s4.62,10.3,10.3,10.3,10.3-4.62,10.3-10.3-4.62-10.3-10.3-10.3m0-.96c6.22,0,11.26,5.04,11.26,11.26s-5.04,11.26-11.26,11.26S0,108.35,0,102.12s5.04-11.26,11.26-11.26h0Z"/>
    </g>
    <g id="Path_5062" data-name="Path 5062">
      <path class="cls-3" d="m37.62,156.17c6.22,0,11.26,5.04,11.26,11.26s-5.04,11.26-11.26,11.26-11.26-5.04-11.26-11.26h0c0-6.22,5.04-11.26,11.26-11.26Z"/>
      <path class="cls-3" d="m37.62,157.13c-5.69,0-10.3,4.62-10.3,10.3s4.62,10.3,10.3,10.3,10.3-4.62,10.3-10.3-4.62-10.3-10.3-10.3m0-.96c6.22,0,11.26,5.04,11.26,11.26s-5.04,11.26-11.26,11.26-11.26-5.04-11.26-11.26,5.04-11.26,11.26-11.26Z"/>
    </g>
  </g>
  <g id="Group_7441" data-name="Group 7441">
    <g id="Group_7355" data-name="Group 7355">
      <path id="Path_5025" data-name="Path 5025" class="cls-5" d="m115.38,151.7c-6.92,0-13.67-2-19.47-5.78l-.05-.03c-6.87-4.46-15.72-4.48-22.58,0-11.84,7.73-27.15,7.74-39,0-6.87-4.46-15.72-4.46-22.59,0-3.44,2.31-8.1,1.4-10.41-2.04s-1.4-8.1,2.04-10.41c.06-.04.11-.08.17-.11,11.84-7.72,27.13-7.72,38.97,0,6.87,4.46,15.72,4.46,22.58,0,11.83-7.72,27.13-7.74,38.97-.03l.05.03c6.87,4.46,15.72,4.48,22.58,0,3.5-2.2,8.14-1.15,10.34,2.36,2.16,3.43,1.2,7.94-2.16,10.21-5.8,3.77-12.55,5.78-19.47,5.78h.02v.02h.01Z"/>
      <path id="Path_5026" data-name="Path 5026" class="cls-1" d="m188.81,109.73c-6.9,0-13.64-1.99-19.43-5.76l-.03-.02-.06-.04c-6.87-4.45-15.71-4.45-22.57,0l-.07.05c-11.83,7.69-27.1,7.68-38.92-.03-6.87-4.46-15.72-4.46-22.58,0-3.5,2.22-8.14,1.18-10.35-2.32-2.18-3.44-1.22-7.99,2.16-10.24,11.84-7.72,27.13-7.72,38.96,0,6.87,4.46,15.72,4.46,22.58,0l.07-.05c11.81-7.67,27.05-7.67,38.87,0l.04.02.06.04c6.87,4.45,15.71,4.45,22.56,0,3.43-2.32,8.1-1.43,10.42,2s1.43,8.1-2,10.42c-.07.05-.15.1-.23.15-5.8,3.77-12.55,5.79-19.46,5.79h-.02Z"/>
      <path id="Path_5027" data-name="Path 5027" class="cls-4" d="m127.84,67.77c-6.9,0-13.65-1.99-19.44-5.76l-.04-.02-.06-.04c-6.85-4.44-15.67-4.45-22.53-.02l-.08.05c-11.84,7.71-27.13,7.71-38.96,0-3.5-2.21-4.54-6.85-2.33-10.35s6.85-4.54,10.35-2.33c.06.04.12.07.17.11,6.85,4.45,15.68,4.48,22.54.03l.07-.05c11.82-7.7,27.08-7.71,38.91-.03l.04.02.06.04c6.87,4.45,15.71,4.45,22.56,0,3.5-2.2,8.14-1.15,10.34,2.36,2.16,3.43,1.2,7.94-2.16,10.21-5.8,3.77-12.55,5.78-19.46,5.78h.02Z"/>
    </g>
    <path id="Path_5025-2" data-name="Path 5025-2" class="cls-6" d="m115.38,149.31c-6.67.05-13.28-1.22-19.47-3.73l-.05-.02c-7.26-2.88-15.33-2.88-22.58,0-12.52,4.98-26.48,4.99-39,0-7.26-2.88-15.34-2.88-22.59,0-3.47,1.46-8.12.82-10.38-1.42s-1.28-5.24,2.19-6.7c12.51-4.98,26.46-4.98,38.97,0,7.26,2.88,15.33,2.88,22.58,0,12.51-4.98,26.46-4.99,38.97-.02l.05.02c7.26,2.88,15.33,2.88,22.58,0,3.47-1.46,8.12-.82,10.38,1.42s1.27,5.24-2.2,6.7c-6.19,2.5-12.8,3.77-19.47,3.73l.02.02h0Z"/>
    <path id="Path_5026-2" data-name="Path 5026-2" class="cls-6" d="m188.81,108.5c-6.73.04-13.37-1.46-19.43-4.38l-.03-.02-.06-.03c-7.14-3.4-15.44-3.4-22.57,0l-.07.04c-12.31,5.86-26.61,5.85-38.92-.03-7.14-3.41-15.45-3.41-22.58,0-3.47,1.72-8.12.98-10.38-1.66s-1.28-6.19,2.19-7.91c12.32-5.88,26.64-5.88,38.96,0,7.14,3.41,15.45,3.41,22.58,0l.07-.04c12.3-5.85,26.57-5.85,38.87,0l.04.02.06.03c7.14,3.4,15.44,3.4,22.56,0,3.47-1.72,8.12-.98,10.38,1.67,2.26,2.65,1.27,6.2-2.2,7.91-6.07,2.94-12.72,4.44-19.46,4.4h-.01Z"/>
    <path id="Path_5027-2" data-name="Path 5027-2" class="cls-6" d="m127.84,66.32c-6.72.04-13.36-1.44-19.44-4.33l-.04-.02-.06-.03c-7.13-3.35-15.4-3.36-22.53-.02l-.08.04c-12.34,5.81-26.62,5.81-38.96,0-3.47-1.7-4.44-5.21-2.19-7.82s6.91-3.35,10.38-1.64c7.14,3.36,15.41,3.37,22.54.02l.07-.04c12.32-5.8,26.58-5.81,38.91-.02l.04.02.06.03c7.15,3.36,15.43,3.36,22.56,0,3.47-1.7,8.12-.96,10.38,1.65,2.26,2.62,1.27,6.12-2.2,7.82-6.08,2.9-12.73,4.38-19.46,4.34h.02Z"/>
    <path id="Path_5032" data-name="Path 5032" class="cls-6" d="m125.38,66.32c-6.67.05-13.28-1.22-19.47-3.73l-.05-.02c-7.26-2.88-15.33-2.88-22.58,0-12.52,4.98-26.48,4.99-39,0-6.87-2.88-3.64-13.09,8.19-8.11,7.26,2.88,15.33,2.88,22.58,0,12.51-4.98,26.46-4.99,38.97-.02l.05.02c7.26,2.88,15.33,2.88,22.58,0,3.47-1.46,8.12-.82,10.38,1.42s1.27,5.24-2.2,6.7c-6.19,2.5-12.79,3.77-19.47,3.72l.02.02h0Z"/>
  </g>
</svg>