<?xml version="1.0" encoding="UTF-8"?>
<svg id="Layer_1" data-name="Layer 1" xmlns="http://www.w3.org/2000/svg" xmlns:xlink="http://www.w3.org/1999/xlink" viewBox="0 0 215.53 207.05">
  <defs>
    <style>
      .cls-1 {
        fill: url(#linear-gradient-2);
      }

      .cls-2 {
        fill: #f7f9ff;
      }

      .cls-3 {
        fill: #fed938;
      }

      .cls-4 {
        fill: #fff;
        opacity: .35;
      }

      .cls-4, .cls-5 {
        isolation: isolate;
      }

      .cls-6 {
        fill: #fedc3b;
      }

      .cls-7 {
        fill: url(#linear-gradient);
      }

      .cls-5 {
        fill: none;
        opacity: .52;
        stroke: #fff;
        stroke-linecap: round;
        stroke-linejoin: round;
        stroke-width: 8px;
      }

      .cls-8 {
        fill: #fcd73d;
      }
    </style>
    <linearGradient id="linear-gradient" x1="-570.67" y1="490.8" x2="-570.66" y2="489.51" gradientTransform="translate(5556.01 74852.31) rotate(45.97) scale(100.8 -97.86)" gradientUnits="userSpaceOnUse">
      <stop offset="0" stop-color="#e0e8ff" stop-opacity="0"/>
      <stop offset=".84" stop-color="#c7d4ff" stop-opacity=".85"/>
      <stop offset="1" stop-color="#c9d6fd"/>
    </linearGradient>
    <linearGradient id="linear-gradient-2" x1="-571.77" y1="487.87" x2="-571.76" y2="486.59" gradientTransform="translate(109524.08 75952.68) scale(191.31 -155.62)" xlink:href="#linear-gradient"/>
  </defs>
  <g id="Fuld_sol" data-name="Fuld sol">
    <circle id="Ellipse_116" data-name="Ellipse 116" class="cls-6" cx="81.43" cy="76.71" r="51.72"/>
    <g id="Path_5057" data-name="Path 5057">
      <path class="cls-6" d="m81.43,0c4.67,0,8.46,3.79,8.46,8.46s-3.79,8.46-8.46,8.46-8.46-3.79-8.46-8.46h0c0-4.67,3.79-8.46,8.46-8.46Z"/>
      <path class="cls-3" d="m81.43.73c-4.27,0-7.74,3.47-7.74,7.74s3.47,7.74,7.74,7.74,7.74-3.47,7.74-7.74-3.47-7.74-7.74-7.74m0-.73c4.67,0,8.46,3.79,8.46,8.46s-3.79,8.46-8.46,8.46-8.46-3.79-8.46-8.46,3.79-8.46,8.46-8.46Z"/>
    </g>
    <g id="Path_5058" data-name="Path 5058">
      <path class="cls-6" d="m131.66,16.93c4.67,0,8.46,3.79,8.46,8.46s-3.79,8.46-8.46,8.46-8.46-3.79-8.46-8.46h0c0-4.67,3.79-8.46,8.46-8.46Z"/>
      <path class="cls-6" d="m131.66,17.66c-4.27,0-7.74,3.47-7.74,7.74s3.47,7.74,7.74,7.74,7.74-3.47,7.74-7.74-3.47-7.74-7.74-7.74m0-.73c4.67,0,8.46,3.79,8.46,8.46s-3.79,8.46-8.46,8.46-8.46-3.79-8.46-8.46,3.79-8.46,8.46-8.46Z"/>
    </g>
    <g id="Path_5059" data-name="Path 5059">
      <path class="cls-3" d="m148.59,68.25c4.67,0,8.46,3.79,8.46,8.46s-3.79,8.46-8.46,8.46-8.46-3.79-8.46-8.46h0c0-4.67,3.79-8.46,8.46-8.46Z"/>
      <path class="cls-3" d="m148.59,68.98c-4.27,0-7.74,3.47-7.74,7.74s3.47,7.74,7.74,7.74,7.74-3.47,7.74-7.74-3.47-7.74-7.74-7.74m0-.73c4.67,0,8.46,3.79,8.46,8.46s-3.79,8.46-8.46,8.46-8.46-3.79-8.46-8.46,3.79-8.46,8.46-8.46Z"/>
    </g>
    <g id="Path_5060" data-name="Path 5060">
      <path class="cls-6" d="m131.66,119.97c4.67,0,8.46,3.79,8.46,8.46s-3.79,8.46-8.46,8.46-8.46-3.79-8.46-8.46h0c0-4.67,3.79-8.46,8.46-8.46Z"/>
      <path class="cls-6" d="m131.66,120.7c-4.27,0-7.74,3.47-7.74,7.74s3.47,7.74,7.74,7.74,7.74-3.47,7.74-7.74-3.47-7.74-7.74-7.74m0-.73c4.67,0,8.46,3.79,8.46,8.46s-3.79,8.46-8.46,8.46-8.46-3.79-8.46-8.46,3.79-8.46,8.46-8.46Z"/>
    </g>
    <g id="Path_5061" data-name="Path 5061">
      <path class="cls-3" d="m81.43,134.23c4.67,0,8.46,3.79,8.46,8.46s-3.79,8.46-8.46,8.46-8.46-3.79-8.46-8.46h0c0-4.67,3.79-8.46,8.46-8.46Z"/>
      <path class="cls-3" d="m81.43,134.96c-4.27,0-7.74,3.47-7.74,7.74s3.47,7.74,7.74,7.74,7.74-3.47,7.74-7.74-3.47-7.74-7.74-7.74m0-.73c4.67,0,8.46,3.79,8.46,8.46s-3.79,8.46-8.46,8.46-8.46-3.79-8.46-8.46,3.79-8.46,8.46-8.46Z"/>
    </g>
    <g id="Path_5063" data-name="Path 5063">
      <path class="cls-8" d="m29.71,16.93c4.67,0,8.46,3.79,8.46,8.46s-3.79,8.46-8.46,8.46-8.46-3.79-8.46-8.46h0c0-4.67,3.79-8.46,8.46-8.46Z"/>
    </g>
    <g id="Path_5064" data-name="Path 5064">
      <path class="cls-3" d="m9.91,68.25c4.67,0,8.46,3.79,8.46,8.46s-3.79,8.46-8.46,8.46-8.46-3.79-8.46-8.46h0c0-4.67,3.79-8.46,8.46-8.46Z"/>
      <path class="cls-3" d="m9.91,68.98c-4.27,0-7.74,3.47-7.74,7.74s3.47,7.74,7.74,7.74,7.74-3.47,7.74-7.74-3.47-7.74-7.74-7.74m0-.73c4.67,0,8.46,3.79,8.46,8.46s-3.79,8.46-8.46,8.46-8.46-3.79-8.46-8.46,3.79-8.46,8.46-8.46Z"/>
    </g>
    <g id="Path_5062" data-name="Path 5062">
      <path class="cls-6" d="m29.71,117.31c4.67,0,8.46,3.79,8.46,8.46s-3.79,8.46-8.46,8.46-8.46-3.79-8.46-8.46h0c0-4.67,3.79-8.46,8.46-8.46Z"/>
      <path class="cls-6" d="m29.71,118.03c-4.27,0-7.74,3.47-7.74,7.74s3.47,7.74,7.74,7.74,7.74-3.47,7.74-7.74-3.47-7.74-7.74-7.74m0-.73c4.67,0,8.46,3.79,8.46,8.46s-3.79,8.46-8.46,8.46-8.46-3.79-8.46-8.46,3.79-8.46,8.46-8.46Z"/>
    </g>
  </g>
  <g id="Sky">
    <path id="Path_4982" data-name="Path 4982" class="cls-5" d="m107.96,123.94c-7.83-13.41-22.06-21.94-37.72-22.62-25.32-1.11-46.76,18.24-47.88,43.23"/>
    <g id="Group_7337" data-name="Group 7337">
      <path id="Path_4975" data-name="Path 4975" class="cls-2" d="m215.53,153.87c0-29.31-24.04-53.1-53.74-53.17h0c0-29.37-24.12-53.18-53.88-53.18s-53.88,23.81-53.88,53.18h-.14C24.12,100.69,0,124.5,0,153.87s24.12,53.18,53.88,53.18c.47,0,.94,0,1.4-.02v.02h107.77v-.02c29.2-.75,52.48-24.33,52.48-53.16Z"/>
      <path id="Union_21" data-name="Union 21" class="cls-7" d="m88.23,134.96c15.23,15.55,15.18,39.98-.12,54.57-15.29,14.59-40.04,13.81-55.27-1.73-15.22-15.54-15.18-39.98.12-54.57,15.3-14.59,40.04-13.81,55.27,1.73Z"/>
      <path id="Union_22" data-name="Union 22" class="cls-1" d="m164.27,198.17c-13.8.42-36.99-1.07-43.18-1.07-33.29,0-45.13-18.52-57.55-40.23-12.42-21.71,26.31-71.79,42.83-78.66,5.31-2.21,21.59,5.34,25.95,16.16,3.28,8.13,3.97,31.72,15.92,36.99,13.34,5.88,23.8,7.73,31.04,10.5,18.46,2.45,32.45,14.14,32.45,28.19,0,15.83-17.76,28.67-39.68,28.67-2.61,0-5.21-.19-7.79-.56Z"/>
      <path id="Union_23" data-name="Union 23" class="cls-4" d="m101.69,134.52c7.85,20.19,7.18,39.22-1.5,42.51-8.68,3.29-22.09-10.42-29.94-30.6-7.85-20.18-7.18-39.22,1.5-42.51,8.68-3.29,22.08,10.41,29.94,30.6Z"/>
    </g>
  </g>
</svg>