<?xml version="1.0" standalone="no"?>
<!DOCTYPE svg PUBLIC "-//W3C//DTD SVG 20010904//EN"
 "http://www.w3.org/TR/2001/REC-SVG-20010904/DTD/svg10.dtd">
<svg version="1.0" xmlns="http://www.w3.org/2000/svg"
 width="864.000000pt" height="864.000000pt" viewBox="0 0 864.000000 864.000000"
 preserveAspectRatio="xMidYMid meet">
<metadata>
Created by potrace 1.14, written by Peter Selinger 2001-2017
</metadata>
<g transform="translate(0.000000,864.000000) scale(0.100000,-0.100000)"
fill="#000000" stroke="none">
<path d="M3147 8450 c-135 -53 -228 -190 -220 -325 5 -79 6 -87 35 -146 119
-241 464 -251 596 -16 48 85 56 159 29 282 -6 28 -60 105 -94 136 -64 58 -126
82 -218 86 -60 2 -92 -2 -128 -17z"/>
<path d="M1086 7774 c-79 -25 -155 -90 -196 -166 -27 -52 -33 -82 -33 -163 -1
-215 204 -372 421 -321 86 20 185 106 224 194 27 62 32 160 12 230 -17 58 -68
137 -105 162 -12 8 -27 20 -33 26 -11 10 -33 20 -49 23 -4 0 -20 7 -35 14 -37
19 -147 19 -206 1z"/>
<path d="M5150 7768 c-66 -27 -153 -110 -180 -172 -78 -175 -6 -368 168 -453
48 -23 69 -28 138 -28 71 0 89 5 147 33 74 37 135 99 169 171 16 35 21 67 21
131 1 74 -3 93 -28 144 -33 69 -95 132 -162 166 -70 35 -197 38 -273 8z"/>
<path d="M3108 7465 c-2 -1 -30 -5 -63 -9 -33 -3 -71 -8 -85 -10 -22 -4 -63
-11 -120 -21 -8 -1 -22 -4 -30 -7 -8 -3 -37 -11 -65 -17 -77 -18 -189 -53
-199 -63 -6 -4 -16 -8 -24 -8 -16 0 -282 -129 -333 -162 -138 -89 -140 -90
-161 -110 -10 -10 -21 -18 -24 -18 -3 0 -11 -6 -19 -12 -7 -7 -32 -29 -56 -48
-83 -67 -289 -282 -289 -301 0 -5 -4 -9 -8 -9 -6 0 -71 -89 -107 -149 -5 -9
-12 -18 -15 -21 -3 -3 -11 -16 -18 -29 -8 -13 -23 -40 -35 -60 -111 -193 -216
-498 -243 -706 -4 -27 -9 -63 -11 -80 -7 -48 -10 -445 -3 -445 4 0 7 -12 7
-27 0 -32 10 -100 23 -158 5 -22 12 -55 15 -74 3 -19 8 -38 11 -43 3 -4 7 -16
9 -26 9 -47 28 -108 37 -120 6 -7 8 -15 5 -18 -5 -5 14 -53 57 -149 43 -95 63
-135 89 -177 16 -26 26 -52 23 -56 -3 -5 -40 -22 -83 -37 -43 -16 -89 -35
-103 -42 -14 -7 -31 -13 -37 -13 -7 0 -13 -4 -13 -10 0 -5 -6 -10 -13 -10 -16
0 -137 -63 -179 -91 -14 -11 -29 -19 -33 -19 -3 0 -21 -11 -39 -25 -18 -14
-38 -25 -44 -25 -7 0 -12 -3 -12 -7 0 -5 -17 -19 -38 -33 -20 -14 -39 -27 -42
-30 -3 -3 -27 -23 -55 -44 -123 -97 -332 -324 -411 -446 -16 -25 -31 -47 -34
-50 -16 -16 -80 -131 -131 -235 -52 -108 -131 -321 -142 -385 -3 -14 -10 -43
-16 -65 -6 -22 -13 -58 -16 -80 -3 -22 -8 -51 -11 -65 -13 -71 -18 -141 -18
-305 0 -146 7 -310 14 -310 1 0 3 -13 5 -30 2 -16 7 -45 10 -62 3 -18 6 -35 6
-38 0 -2 5 -19 10 -37 5 -18 12 -44 14 -58 4 -26 38 -131 74 -231 24 -68 87
-201 136 -289 133 -238 339 -471 581 -657 288 -222 681 -377 1068 -421 90 -10
4751 -8 4821 2 69 10 90 14 90 16 0 1 9 3 20 4 21 3 73 12 115 22 14 3 35 7
48 10 13 2 44 12 69 20 25 9 55 17 67 20 11 2 30 8 41 12 11 5 47 20 80 32 86
33 205 89 237 111 14 11 33 19 42 19 9 0 16 4 16 8 0 5 18 17 40 28 22 10 40
22 40 27 0 4 4 7 10 7 16 0 97 59 220 161 104 85 360 350 360 372 0 5 3 7 7 4
10 -10 65 71 57 84 -5 8 -3 9 6 4 10 -6 12 -4 7 9 -4 11 -3 15 4 10 15 -9 30
18 18 32 -7 8 -6 15 2 20 8 5 9 3 4 -6 -5 -8 -3 -11 6 -8 8 3 13 12 13 21 -1
9 2 15 6 12 11 -7 22 24 13 37 -4 7 -1 8 7 3 10 -6 12 -3 8 13 -4 13 -2 20 3
16 9 -5 36 53 31 69 -1 4 3 7 10 7 6 0 9 3 6 6 -4 3 5 36 19 72 49 131 96 267
98 287 2 11 4 20 5 20 2 0 6 16 14 55 3 14 10 45 16 70 5 25 12 59 14 75 2 17
5 30 6 30 0 0 4 32 7 70 14 149 6 536 -12 565 -2 3 -6 26 -10 50 -3 25 -10 61
-15 80 -5 19 -11 46 -14 60 -2 14 -5 26 -7 28 -1 1 -2 5 -3 10 -2 4 -9 27 -16
52 -7 25 -14 48 -16 53 -1 4 -3 9 -4 12 -1 3 -3 8 -5 13 -30 107 -165 381
-231 469 -13 17 -24 36 -24 41 0 6 -3 12 -7 14 -5 2 -35 39 -67 83 -114 155
-359 379 -541 496 -98 63 -255 143 -367 188 -93 37 -273 93 -313 98 -16 1 -37
6 -45 9 -8 4 -22 8 -30 9 -8 1 -40 5 -70 10 -95 14 -103 15 -175 21 -38 3 -91
6 -117 6 -27 0 -49 3 -49 6 -1 4 -3 36 -4 72 -5 100 -14 189 -26 255 -6 33
-13 73 -16 89 -15 90 -66 260 -111 366 -30 72 -36 98 -37 170 -3 104 -32 178
-97 243 -43 42 -98 77 -123 77 -7 0 -37 28 -66 62 -77 89 -224 236 -294 294
-33 27 -62 51 -65 54 -3 3 -12 10 -21 15 -9 6 -54 35 -100 66 -97 66 -245 149
-264 149 -8 0 -15 4 -17 8 -1 5 -46 26 -100 47 -82 32 -99 43 -114 71 -10 19
-22 34 -26 34 -5 0 -8 6 -8 13 0 14 -126 183 -185 247 -92 102 -198 200 -280
262 -16 12 -32 25 -35 28 -8 10 -229 153 -240 156 -3 0 -52 24 -110 52 -95 45
-227 97 -273 107 -9 2 -21 6 -25 9 -5 3 -19 7 -33 10 -13 3 -51 12 -84 20 -33
8 -78 17 -100 20 -22 4 -47 9 -55 11 -38 12 -461 29 -472 20z"/>
<path d="M337 5730 c-44 -8 -137 -50 -137 -62 0 -4 -5 -8 -11 -8 -30 0 -111
-126 -124 -191 -11 -61 -7 -141 8 -166 5 -7 5 -13 2 -13 -4 0 8 -26 26 -57 37
-69 113 -133 184 -158 55 -20 151 -22 212 -6 92 25 197 130 225 224 20 70 14
174 -15 238 -41 94 -148 183 -232 196 -56 8 -104 9 -138 3z"/>
</g>
</svg>
